<?xml version="1.0" standalone="no"?>
<!DOCTYPE svg PUBLIC "-//W3C//DTD SVG 20010904//EN"
 "http://www.w3.org/TR/2001/REC-SVG-20010904/DTD/svg10.dtd">
<svg version="1.0" xmlns="http://www.w3.org/2000/svg"
 width="1024.000000pt" height="1024.000000pt" viewBox="0 0 1024.000000 1024.000000"
 preserveAspectRatio="xMidYMid meet">

<g transform="translate(0.000000,1024.000000) scale(0.100000,-0.100000)"
fill="#000000" stroke="none">
<path d="M4995 8833 c-566 -104 -1223 -252 -1630 -368 -625 -178 -1417 -451
-1757 -607 l-67 -30 -5 -72 c-20 -260 -12 -940 15 -1236 19 -219 87 -645 114
-711 5 -13 -3 -15 -55 -11 -77 6 -138 -17 -198 -72 -75 -69 -85 -100 -79 -240
4 -100 10 -142 40 -243 51 -172 124 -351 227 -550 l88 -173 -14 -40 c-57 -165
-56 -386 2 -629 13 -57 23 -105 22 -105 -2 -1 -25 -8 -53 -15 -68 -17 -133
-60 -201 -134 -85 -91 -107 -147 -112 -283 -13 -324 146 -610 417 -750 94 -49
179 -69 283 -68 l76 1 7 -56 c17 -152 89 -340 170 -451 66 -90 190 -196 278
-240 121 -59 191 -75 332 -74 140 0 210 16 331 74 157 76 338 235 440 389 26
39 49 71 52 71 2 0 45 -33 96 -73 190 -152 225 -177 381 -279 231 -151 378
-238 554 -327 236 -119 362 -173 389 -166 51 13 474 228 620 315 212 127 430
275 610 414 85 65 157 114 161 110 4 -5 39 -49 77 -99 163 -213 348 -349 551
-407 102 -29 295 -31 393 -4 190 52 374 199 474 379 53 95 85 189 103 303 l16
104 66 0 c161 0 350 87 473 217 148 157 228 357 228 572 0 171 -26 240 -134
347 -76 77 -130 110 -195 120 -46 7 -46 8 -26 84 60 223 67 445 18 637 l-15
62 90 183 c193 391 292 723 263 883 -26 139 -136 224 -277 212 l-66 -5 7 27
c38 150 81 432 109 717 38 382 41 1272 4 1295 -51 33 -560 228 -893 344 -502
174 -1174 367 -1635 470 -556 125 -979 207 -1055 204 -16 -1 -66 -8 -110 -16z
m227 -328 c339 -47 1028 -202 1533 -347 586 -167 1237 -385 1560 -521 l80 -34
9 -209 c18 -434 -36 -1068 -129 -1524 -60 -294 -45 -261 -149 -337 -155 -113
-197 -154 -272 -261 -1 -2 -40 5 -86 16 -100 25 -307 52 -391 52 l-62 0 -39
98 c-80 201 -142 315 -213 391 -105 114 -233 197 -358 231 l-60 17 -7 94 c-28
361 -41 503 -54 569 -8 41 -14 76 -14 76 0 1 37 -23 83 -54 108 -72 187 -109
278 -128 213 -45 379 67 379 255 0 133 -96 435 -206 651 -155 305 -331 488
-523 544 -80 23 -237 21 -330 -4 -89 -25 -214 -86 -297 -145 -78 -56 -248
-234 -304 -320 -41 -61 -47 -66 -73 -61 -16 3 -97 13 -180 22 -208 22 -533 13
-723 -21 -31 -5 -35 -2 -90 77 -295 421 -771 594 -1073 389 -263 -179 -569
-751 -588 -1101 -5 -89 -4 -100 20 -147 99 -194 356 -193 660 3 37 24 67 43
67 41 0 -1 -6 -36 -14 -77 -13 -66 -52 -471 -59 -605 l-2 -49 -81 -22 c-44
-11 -104 -33 -132 -49 -73 -40 -190 -151 -250 -237 -53 -77 -152 -269 -193
-377 l-24 -61 -94 0 c-105 0 -265 -21 -363 -48 l-65 -19 -54 62 c-75 85 -144
141 -317 261 -7 5 -80 335 -101 454 -21 127 -52 378 -71 595 -15 162 -23 702
-13 845 l8 114 95 39 c814 333 2071 691 2977 847 204 35 170 33 305 15z
m-1177 -699 c85 -42 113 -63 185 -135 94 -94 148 -168 203 -278 20 -39 40 -74
45 -77 5 -3 75 6 157 20 322 52 591 53 929 3 215 -32 193 -37 243 56 118 218
245 347 420 427 172 78 363 26 499 -138 148 -177 307 -518 345 -738 14 -83 8
-90 -70 -81 -111 12 -256 93 -388 218 -53 51 -97 108 -170 223 -54 86 -112
172 -129 192 -30 35 -32 35 -62 23 -70 -29 -242 -263 -222 -302 5 -8 36 -30
69 -47 138 -74 234 -240 282 -482 23 -120 41 -376 37 -530 l-3 -115 37 -60
c91 -149 139 -302 139 -439 1 -325 -160 -570 -540 -820 -111 -74 -164 -129
-223 -231 -124 -216 -186 -295 -273 -350 -138 -87 -339 -127 -535 -106 -296
32 -423 124 -585 424 -84 155 -107 179 -335 339 -269 188 -363 311 -427 557
-21 82 -24 112 -20 201 6 129 33 217 117 375 l58 110 5 230 c8 347 37 517 118
683 46 95 129 187 212 234 26 15 47 34 47 41 0 8 -21 50 -47 93 -55 93 -161
204 -193 204 -31 0 -69 -45 -152 -178 -128 -208 -217 -306 -361 -400 -106 -69
-169 -89 -269 -84 -37 2 -37 3 -32 35 38 217 141 475 264 657 77 114 130 172
207 226 84 61 128 74 233 71 79 -2 92 -5 185 -51z m-615 -2092 c-21 -55 -24
-232 -6 -342 30 -179 82 -303 185 -439 78 -104 152 -171 287 -262 153 -104
267 -194 303 -240 45 -56 136 -251 165 -354 39 -133 53 -284 38 -412 -32 -293
-167 -505 -499 -788 -113 -97 -159 -161 -281 -397 -149 -286 -277 -433 -461
-529 -98 -51 -179 -71 -282 -71 -198 1 -382 119 -474 306 -42 85 -75 227 -75
328 l0 68 28 -7 c15 -3 30 -9 33 -13 3 -4 22 -57 42 -119 56 -177 118 -257
245 -316 90 -42 218 -49 320 -18 166 50 300 205 439 506 47 102 80 203 118
355 15 58 40 147 58 198 36 107 50 117 127 88 72 -28 89 -30 96 -12 20 52 -74
159 -170 195 -137 51 -276 11 -276 -80 l0 -29 39 21 c33 17 44 18 61 9 18 -10
21 -18 16 -43 -10 -51 -82 -150 -174 -243 -252 -250 -613 -379 -893 -320 -115
25 -183 73 -228 163 -21 43 -28 83 -13 83 18 0 261 249 302 309 103 153 106
251 8 336 l-45 39 21 50 c15 39 20 75 20 151 1 89 -2 107 -27 160 -16 33 -40
73 -55 88 -58 62 -149 84 -211 53 -89 -46 -171 -216 -171 -353 l0 -64 -67 3
-66 3 -14 40 c-34 98 -56 242 -57 370 -1 145 9 190 71 304 l34 64 -36 56 c-42
65 -185 354 -248 503 -91 212 -125 438 -67 438 61 0 220 -88 393 -218 101 -76
217 -179 217 -192 0 -4 -20 -32 -44 -62 -75 -90 -116 -166 -116 -214 0 -24 5
-46 10 -49 6 -4 26 7 45 24 204 179 553 292 851 276 94 -5 123 -3 131 7 6 7
28 58 48 113 69 185 166 356 265 468 46 52 56 55 40 11z m3446 -26 c102 -111
173 -235 244 -428 23 -63 45 -121 49 -129 6 -10 49 -14 192 -16 161 -2 196 -5
279 -27 183 -49 354 -132 470 -228 64 -54 75 -58 84 -34 23 60 -10 148 -95
253 l-51 63 34 35 c131 139 483 373 560 373 49 0 50 -72 2 -256 -40 -152 -210
-520 -310 -669 -19 -27 -34 -58 -34 -67 0 -10 13 -39 29 -65 94 -154 103 -352
29 -633 l-23 -85 -66 -3 -66 -3 -6 83 c-12 190 -123 347 -245 348 -52 0 -86
-16 -134 -67 -63 -65 -82 -121 -82 -248 -1 -94 2 -117 22 -159 21 -47 22 -50
5 -60 -40 -21 -82 -74 -93 -117 -33 -121 45 -246 298 -481 l93 -86 -15 -36
c-30 -72 -74 -124 -128 -150 -190 -93 -499 -65 -735 65 -247 136 -507 429
-440 496 15 16 25 14 90 -12 28 -12 21 40 -10 75 -98 109 -379 6 -418 -152
-11 -45 20 -52 100 -21 57 22 69 24 80 12 22 -23 54 -113 101 -289 61 -226 79
-278 139 -406 178 -380 382 -520 666 -460 37 8 85 24 107 35 102 52 200 199
232 348 16 75 17 77 55 90 l38 13 -7 -94 c-17 -248 -102 -412 -272 -525 -237
-159 -513 -111 -774 135 -88 83 -153 179 -255 374 -136 258 -167 301 -325 445
-146 131 -224 216 -303 327 -57 79 -87 144 -123 263 -26 83 -28 103 -28 265
-1 216 14 281 114 485 87 178 130 227 298 339 70 46 162 114 205 150 189 162
307 363 351 596 17 88 21 287 7 358 -5 23 -5 42 -1 42 4 0 34 -28 66 -62z
m-4523 -1680 c30 -41 27 -106 -7 -135 -34 -29 -38 -29 -73 1 -24 21 -28 31
-27 75 1 87 61 120 107 59z m5576 13 c50 -50 27 -166 -33 -166 -45 0 -69 40
-61 98 7 47 35 87 60 87 8 0 24 -9 34 -19z m-3154 -232 c206 -49 456 -47 673
6 57 14 107 25 111 25 5 0 11 -35 15 -77 14 -173 65 -347 142 -490 86 -160
191 -281 429 -499 100 -92 163 -162 209 -235 l17 -27 -168 -129 c-217 -167
-321 -239 -523 -360 -274 -165 -519 -293 -561 -293 -44 0 -514 253 -699 375
-162 108 -544 392 -548 409 -6 25 99 156 194 242 257 234 335 321 422 472 89
151 131 282 159 490 14 102 20 122 33 117 8 -4 51 -15 95 -26z m-2595 -215
c102 -16 196 -45 192 -59 -2 -10 -81 -12 -347 -5 -168 4 -243 -8 -318 -48 -72
-39 -75 -84 -11 -210 46 -93 131 -173 248 -232 l89 -45 22 -75 c11 -41 32 -98
46 -127 l26 -52 -29 -12 c-49 -20 -173 -7 -247 26 -114 52 -219 161 -262 273
-71 188 -70 362 2 463 78 111 304 150 589 103z m6270 4 c62 -12 132 -44 178
-83 95 -80 97 -338 5 -525 -90 -184 -297 -305 -463 -269 -32 7 -50 15 -46 22
45 106 66 162 77 207 l12 55 97 47 c162 79 263 202 277 340 5 51 4 56 -22 76
-63 50 -118 57 -417 56 -155 0 -278 3 -278 8 0 25 151 64 296 77 106 9 196 6
284 -11z m-5250 -963 c36 -19 37 -29 6 -99 -33 -73 -76 -135 -137 -195 -66
-65 -125 -86 -225 -78 -192 14 -243 145 -105 270 35 32 91 67 106 67 3 0 5
-34 5 -75 0 -45 4 -75 10 -75 6 0 13 6 16 14 9 25 146 128 209 157 69 33 76
34 115 14z m3973 -16 c57 -30 182 -124 205 -157 l20 -26 -2 82 c-1 45 1 82 4
82 14 0 97 -59 127 -90 65 -66 78 -125 40 -181 -32 -49 -99 -70 -202 -66 -101
4 -144 26 -218 107 -54 60 -122 174 -129 216 -9 55 76 73 155 33z"/>
<path d="M4322 6983 c-55 -19 -93 -58 -131 -135 -49 -97 -37 -147 22 -90 32
31 149 92 176 92 8 0 52 11 98 25 l84 26 39 -22 c45 -26 55 -22 46 17 -10 39
-58 80 -110 93 -62 15 -172 13 -224 -6z"/>
<path d="M5697 6986 c-27 -7 -61 -22 -75 -33 -26 -19 -51 -77 -39 -89 3 -3 23
4 44 15 l40 20 119 -33 c132 -35 201 -65 249 -107 54 -48 61 -8 16 87 -32 69
-91 125 -150 142 -50 15 -143 14 -204 -2z"/>
<path d="M4474 6544 c-124 -44 -204 -193 -191 -358 10 -129 69 -241 144 -272
97 -41 227 11 292 116 133 216 35 532 -164 529 -22 0 -59 -7 -81 -15z m171
-157 c62 -62 67 -166 10 -223 -31 -31 -46 -30 -84 2 -52 44 -64 141 -26 214
13 25 27 35 59 39 4 0 23 -14 41 -32z"/>
<path d="M5594 6537 c-105 -50 -161 -170 -151 -321 7 -104 28 -163 79 -221 52
-59 103 -84 181 -91 52 -5 69 -2 107 18 198 103 190 502 -13 607 -70 35 -139
38 -203 8z m238 -157 c41 -56 30 -159 -22 -212 -35 -34 -44 -35 -75 -4 -37 37
-51 98 -36 154 24 89 90 120 133 62z"/>
<path d="M4980 6000 c-66 -14 -178 -73 -237 -125 -102 -90 -120 -188 -58 -313
57 -113 137 -172 303 -222 66 -20 72 -24 72 -49 0 -44 -30 -133 -56 -168 -13
-17 -50 -44 -81 -60 -51 -24 -72 -28 -169 -32 -176 -5 -268 30 -369 141 -61
68 -144 223 -152 287 -5 38 -4 41 19 41 13 0 33 -7 44 -15 28 -21 34 -18 34
14 0 57 -70 111 -142 111 -94 -1 -258 -143 -258 -224 0 -40 26 -38 75 4 74 64
79 60 125 -90 61 -200 125 -287 276 -377 68 -40 70 -42 81 -96 41 -196 241
-484 383 -554 138 -67 366 -72 486 -10 160 83 375 393 400 580 6 40 10 46 58
72 149 82 216 168 292 375 26 73 54 135 62 137 7 3 26 -4 40 -16 67 -53 72
-55 89 -38 13 12 14 21 4 48 -16 48 -73 112 -133 150 -45 29 -61 34 -116 34
-61 0 -65 -2 -98 -37 -38 -42 -49 -97 -16 -83 9 5 28 8 42 9 23 1 25 -2 24
-44 -1 -83 -102 -253 -197 -329 -79 -63 -139 -84 -261 -89 -129 -5 -195 7
-260 49 -58 36 -87 94 -89 181 l-2 60 83 24 c110 32 155 56 211 112 60 61 93
130 99 209 6 80 -19 134 -95 203 -101 93 -201 130 -358 135 -60 2 -130 0 -155
-5z m250 -154 c84 -15 170 -49 195 -76 24 -27 7 -30 -65 -12 -72 17 -330 23
-459 9 -73 -7 -74 -7 -57 12 37 41 159 77 271 79 22 1 74 -5 115 -12z m-261
-1144 c23 -12 64 -40 92 -62 28 -22 55 -40 59 -40 5 0 30 18 55 40 62 53 115
80 176 87 111 13 151 -70 92 -188 -53 -103 -166 -163 -308 -163 -183 0 -335
97 -366 233 -9 40 9 93 38 110 27 17 114 8 162 -17z"/>
<path d="M3134 4661 c-50 -23 -112 -93 -120 -138 -10 -53 6 -58 66 -21 51 31
58 33 149 33 89 0 102 -3 163 -33 37 -18 76 -44 87 -57 26 -34 41 -31 41 8 0
52 -46 133 -93 166 -89 61 -212 79 -293 42z"/>
<path d="M2193 4564 c-77 -28 -153 -123 -153 -191 0 -44 9 -46 54 -8 97 79
211 98 305 50 42 -21 50 -22 55 -9 8 21 -25 82 -66 122 -54 52 -117 63 -195
36z"/>
<path d="M3213 4250 c-89 -18 -137 -62 -172 -156 -91 -241 53 -524 267 -524
96 0 141 33 188 134 47 104 44 298 -8 418 -28 66 -83 113 -147 127 -58 12 -68
12 -128 1z m161 -170 c48 -57 44 -150 -8 -199 -33 -31 -65 -24 -90 19 -27 46
-29 144 -3 183 25 38 67 37 101 -3z"/>
<path d="M6915 4666 c-57 -18 -85 -34 -123 -70 -54 -50 -88 -128 -70 -160 8
-15 13 -13 46 15 59 52 136 81 228 87 74 4 84 2 142 -27 34 -17 66 -31 72 -31
23 0 9 64 -25 110 -61 83 -160 111 -270 76z"/>
<path d="M7891 4558 c-50 -24 -101 -95 -101 -139 l0 -28 53 24 c94 44 198 28
297 -47 l50 -37 6 25 c18 72 -61 183 -149 209 -69 20 -104 19 -156 -7z"/>
<path d="M6923 4250 c-126 -26 -196 -131 -210 -316 -12 -159 41 -300 129 -343
233 -113 467 220 359 510 -43 113 -156 173 -278 149z m54 -198 c10 -24 14 -56
11 -94 -10 -133 -107 -159 -147 -39 -25 76 -3 153 51 175 42 18 65 7 85 -42z"/>
</g>
</svg>
